<?xml version="1.0" encoding="UTF-8" standalone="no"?>
<svg width="24px" height="24px" viewBox="0 0 24 24" version="1.1" xmlns="http://www.w3.org/2000/svg" xmlns:xlink="http://www.w3.org/1999/xlink" xmlns:sketch="http://www.bohemiancoding.com/sketch/ns">
    <!-- Generator: Sketch 3.4 (15575) - http://www.bohemiancoding.com/sketch -->
    <title>Desktop HD Copy 3</title>
    <desc>Created with Sketch.</desc>
    <defs></defs>
    <g id="UI-Kit" stroke="none" stroke-width="1" fill="none" fill-rule="evenodd" sketch:type="MSPage">
        <g id="Desktop-HD" sketch:type="MSArtboardGroup" transform="translate(-604.000000, -464.000000)" stroke="#5B677C">
            <path d="M617.534179,478.828304 C619.799152,478.828304 621.304724,475.805253 621.525003,475.040201 C621.566678,474.874318 621.803494,474.888916 621.95167,474.598953 C622.93135,472.678692 621.793572,472.336973 621.793572,472.336973 C621.793572,472.336973 621.856414,471.19039 621.57197,470.112151 C621.57197,470.112151 620.853582,467.437455 617.534179,467.437455 C614.214115,467.437455 613.495727,470.112151 613.495727,470.112151 C613.211282,471.19039 613.274125,472.336973 613.274125,472.336973 C613.274125,472.336973 612.137007,472.801445 613.101473,474.589663 C613.244357,474.854412 613.452729,474.819245 613.543355,475.040201 C613.762972,475.805253 615.268544,478.828304 617.534179,478.828304 L617.534179,478.828304 L617.534179,478.828304 Z M622.630368,479.598001 C625.888913,480.834824 626.582826,483.962049 626.539828,487.5 L608.938659,487.5 C608.896985,483.74242 609.696076,480.974166 612.946682,479.739997 C614.559417,479.12822 615.405475,478.270274 615.405475,478.270274 M620.112703,478.198612 C620.112703,478.198612 621.018295,478.985561 622.630368,479.598001 L622.630368,479.598001 M609.130494,483.51881 L604.5,483.51881 C604.529106,480.847431 604.40739,478.011496 607.671888,476.772683 C609.283962,476.160906 610.695601,475.198785 610.695601,475.198785 C609.560468,474.500087 608.41409,472.636889 608.268561,472.128624 C608.177274,471.908332 607.968901,471.929565 607.826018,471.664152 C606.861552,469.875934 607.99933,469.404826 607.99933,469.404826 C607.99933,469.404826 607.936488,468.254262 608.220933,467.176023 C608.220933,467.176023 608.939321,464.5 612.258723,464.5 C615.578787,464.5 616.201258,467.402951 616.201258,467.402951" id="Imported-Layers-Copy" sketch:type="MSShapeGroup"></path>
        </g>
    </g>
</svg>