<?xml version="1.0" encoding="UTF-8" standalone="no"?>
<svg width="62px" height="82px" viewBox="0 0 62 82" version="1.1" xmlns="http://www.w3.org/2000/svg" xmlns:xlink="http://www.w3.org/1999/xlink" xmlns:sketch="http://www.bohemiancoding.com/sketch/ns">
    <!-- Generator: Sketch 3.3.3 (12081) - http://www.bohemiancoding.com/sketch -->
    <title>Fill 1 Copy 3</title>
    <desc>Created with Sketch.</desc>
    <defs></defs>
    <g id="Page-1" stroke="none" stroke-width="1" fill="none" fill-rule="evenodd" sketch:type="MSPage">
        <path d="M36.3658854,24.506197 C36.994987,35.8846898 34.9886917,50.5386668 26.4221625,67.5736471 C25.8610934,68.6891675 27.0126154,69.9064718 28.154078,69.4004639 C30.1162979,68.5307339 31.9801751,67.8195699 33.7463715,67.2451325 C35.066651,66.8157604 36.2337913,66.0073126 37.0736082,64.9018515 C45.9771229,53.1817406 49.4721905,42.3468456 50.2237241,33.1730541 C50.3441706,31.7021503 49.8213532,30.2582477 48.837927,29.1579486 C46.542957,26.590187 44.1135104,24.1882711 41.5756619,21.9417444 C39.4846569,20.0905736 36.2116874,21.7176609 36.3658854,24.506197 Z M19.3391114,7.02040247 C14.7756431,4.69803419 10.1201855,2.68207663 5.4717429,0.93268979 C2.15271253,-0.316380623 -1.03117947,2.9674423 0.317160077,6.24742682 C7.0206061,22.5554924 11.7092858,46.6535377 4.54178966,78.6473175 C3.99104451,81.1057507 6.81981773,82.9011984 8.80864172,81.3545853 C10.8366439,79.7775297 12.8003197,78.3442157 14.7001986,77.0429959 C17.3080649,75.2568133 19.3306404,72.7284947 20.5193552,69.7995258 C30.0040576,46.4287924 29.079134,27.558789 24.8198264,13.5366931 C23.9596263,10.7048756 21.9767584,8.36278586 19.3391114,7.02040247 Z M55.0347033,42.5121618 C52.4143953,49.2240788 48.0968498,56.6208204 41.1861298,64.2922067 C40.7688024,64.755595 41.1587315,65.4809215 41.7773768,65.4029621 C42.9912397,65.2499553 44.1360114,65.1669663 45.2131477,65.1399651 C45.6044004,65.1301705 45.9862557,65.0121064 46.3088142,64.7906701 C52.767264,60.3598254 57.4049855,55.7644587 60.7009854,51.2565812 C61.5779951,50.0572777 61.6853382,48.4571916 61.0251322,47.1260588 C60.1923304,45.4466897 59.3105558,43.8161611 58.3832497,42.233017 C57.5918762,40.8821626 55.6041111,41.0536997 55.0347033,42.5121618 Z" id="Fill-1-Copy-3" fill="#0D79D5" sketch:type="MSShapeGroup"></path>
    </g>
</svg>